# xmcd
#
# Track frame offsets: 
#        150
#        20295
#        33433
#        51087
#        66322
#        92357
#        112517
#        131656
#        149577
#
# Disc length: 2502 seconds
#
# Revision: 0
# Processed by: cddbd v1.5.2PL0 Copyright (c) Steve Scherf et al.
# Submitted via: ExactAudioCopy v0.99pb4
#
DISCID=7109c409
DTITLE=Patti Labelle - It's Alright With Me
DYEAR=1979
DGENRE=R&B
TTITLE0=It's Alright With Me
TTITLE1=My Best Was Good Enough
TTITLE2=What'cha Doing To Me
TTITLE3=Love Is Just A Touch Away
TTITLE4=Love And Learn
TTITLE5=Deliver The Funk
TTITLE6=Come What May
TTITLE7=You And Me
TTITLE8=Music Is My Way Of Life
EXTD=
EXTT0=
EXTT1=
EXTT2=
EXTT3=
EXTT4=
EXTT5=
EXTT6=
EXTT7=
EXTT8=
PLAYORDER=
